<?xml version="1.0" encoding="UTF-8"?>
<svg id="Layer_2" data-name="Layer 2" xmlns="http://www.w3.org/2000/svg" viewBox="0 0 128.6 16.98">
  <defs>
    <style>
      .cls-1 {
        fill: #7fe6d7;
      }

      .cls-2 {
        fill: #34373a;
      }
    </style>
  </defs>
  <g id="_도자기" data-name="도자기">
    <g>
      <g>
        <path class="cls-2" d="M8.96,14.8c-1.09,0-2.09-.06-2.99-.19-.91-.12-1.66-.29-2.26-.49-.6-.2-1.14-.44-1.6-.72-.47-.28-.83-.56-1.08-.84s-.46-.57-.63-.89c-.16-.31-.27-.59-.32-.83-.05-.24-.07-.48-.07-.71v-.14h5.22c.28.96,1.69,1.44,4.23,1.44,1.63,0,2.71-.17,3.26-.5.54-.33.82-.76.82-1.28v-.12c0-.52-.27-.94-.82-1.28-.55-.33-1.63-.5-3.26-.5-.71,0-1.34.04-1.89.12-.55.08-.97.16-1.25.25s-.52.2-.71.33c-.19.13-.31.23-.35.29-.04.06-.07.12-.09.18H.34V.06h17.27v3.37H5.2v2.59c1.25-.9,3.12-1.34,5.63-1.34h.19c1.51,0,2.79.12,3.83.37,1.04.25,1.83.61,2.38,1.08s.93.98,1.15,1.53.33,1.18.33,1.89v.12c0,.52-.07,1-.21,1.45s-.41.91-.8,1.37c-.39.47-.9.87-1.53,1.2-.63.33-1.48.6-2.54.81s-2.29.31-3.67.31h-1Z"/>
        <path class="cls-2" d="M19.44,5.66v-2.77c2.36-.13,3.96-1.08,4.8-2.83h3.93v14.74h-4.99V5.66h-3.74Z"/>
        <path class="cls-2" d="M39.45,14.8c-1.09,0-2.09-.06-2.99-.19-.91-.12-1.66-.29-2.26-.49-.6-.2-1.14-.44-1.6-.72-.47-.28-.83-.56-1.08-.84-.25-.28-.46-.57-.63-.89-.16-.31-.27-.59-.32-.83-.05-.24-.07-.48-.07-.71v-.14h5.22c.28.96,1.69,1.44,4.23,1.44,1.63,0,2.71-.17,3.26-.5.55-.33.82-.76.82-1.28v-.12c0-.52-.27-.94-.82-1.28s-1.63-.5-3.26-.5c-.71,0-1.34.04-1.89.12-.55.08-.97.16-1.25.25s-.52.2-.71.33c-.19.13-.31.23-.35.29-.04.06-.07.12-.08.18h-4.82V.06h17.26v3.37h-12.4v2.59c1.25-.9,3.12-1.34,5.63-1.34h.19c1.51,0,2.79.12,3.83.37,1.04.25,1.83.61,2.38,1.08s.93.98,1.15,1.53c.22.55.33,1.18.33,1.89v.12c0,.52-.07,1-.21,1.45s-.41.91-.8,1.37c-.39.47-.9.87-1.53,1.2-.63.33-1.48.6-2.54.81-1.06.21-2.29.31-3.67.31h-1Z"/>
        <path class="cls-2" d="M62.06,0c1.5,0,2.86.09,4.07.28,1.21.19,2.22.45,3.03.81s1.5.74,2.08,1.17,1.02.92,1.32,1.46.52,1.08.66,1.6.21,1.08.21,1.68v.6c0,.7-.09,1.36-.26,1.98-.17.62-.52,1.26-1.03,1.92s-1.17,1.23-1.98,1.69c-.81.46-1.91.85-3.29,1.15-1.39.3-2.98.46-4.79.46h-10.7V0h10.68ZM56.43,11.23h5.24c4.32,0,6.48-1.27,6.48-3.82v-.12c0-2.53-2.16-3.8-6.48-3.8h-5.24v7.73Z"/>
        <path class="cls-2" d="M96.04,14.78h-4.94l-1.38-2.67h-10.51l-1.38,2.67h-4.94L80.72.19h7.48l7.84,14.59ZM88.02,8.82l-2.78-5.36h-1.57l-2.78,5.36h7.13Z"/>
        <path class="cls-2" d="M101.7,8.98L93.2.05h6.17l4.93,5.36L109.32.05h5.61l-8.26,8.93v5.64h-4.97v-5.64Z"/>
      </g>
      <rect class="cls-1" x=".32" y="15.37" width="128.28" height="1.6"/>
    </g>
  </g>
</svg>