<?xml version="1.0" encoding="UTF-8"?>
<svg id="Layer_2" xmlns="http://www.w3.org/2000/svg" version="1.1" viewBox="0 0 128.6 17">
  <!-- Generator: Adobe Illustrator 29.8.2, SVG Export Plug-In . SVG Version: 2.1.1 Build 3)  -->
  <defs>
    <style>
      .st0 {
        fill: #7fe6d7;
      }

      .st1 {
        fill: #eaeaea;
      }
    </style>
  </defs>
  <g id="_도자기">
    <g>
      <g>
        <path class="st1" d="M9,14.8c-1.1,0-2.1,0-3-.2-.9-.1-1.7-.3-2.3-.5s-1.1-.4-1.6-.7c-.5-.3-.8-.6-1.1-.8s-.5-.6-.6-.9c-.2-.3-.3-.6-.3-.8,0-.2,0-.5,0-.7H0c0-.1,5.2-.1,5.2-.1.3,1,1.7,1.4,4.2,1.4s2.7-.2,3.3-.5c.5-.3.8-.8.8-1.3h0c0-.6-.3-1.1-.8-1.4-.6-.3-1.6-.5-3.3-.5s-1.3,0-1.9.1c-.6,0-1,.2-1.2.2s-.5.2-.7.3-.3.2-.3.3,0,.1,0,.2H.3V0h17.3v3.4H5.2v2.6c1.2-.9,3.1-1.3,5.6-1.3h.2c1.5,0,2.8.1,3.8.4s1.8.6,2.4,1.1.9,1,1.1,1.5c.2.6.3,1.2.3,1.9h0c0,.6,0,1.1-.2,1.6s-.4.9-.8,1.4c-.4.5-.9.9-1.5,1.2-.6.3-1.5.6-2.5.8s-2.3.3-3.7.3h-1Z"/>
        <path class="st1" d="M19.4,5.7v-2.8c2.4-.1,4-1.1,4.8-2.8h3.9v14.7h-5V5.7h-3.7Z"/>
        <path class="st1" d="M39.5,14.8c-1.1,0-2.1,0-3-.2-.9-.1-1.7-.3-2.3-.5s-1.1-.4-1.6-.7c-.5-.3-.8-.6-1.1-.8s-.5-.6-.6-.9c-.2-.3-.3-.6-.3-.8s0-.5,0-.7h0c0-.1,5.2-.1,5.2-.1.3,1,1.7,1.4,4.2,1.4s2.7-.2,3.3-.5.8-.8.8-1.3h0c0-.6-.3-1.1-.8-1.4s-1.6-.5-3.3-.5-1.3,0-1.9.1-1,.2-1.2.2-.5.2-.7.3-.3.2-.3.3c0,0,0,.1,0,.2h-4.8V0h17.3v3.4h-12.4v2.6c1.2-.9,3.1-1.3,5.6-1.3h.2c1.5,0,2.8.1,3.8.4s1.8.6,2.4,1.1.9,1,1.2,1.5c.2.6.3,1.2.3,1.9h0c0,.6,0,1.1-.2,1.6s-.4.9-.8,1.4c-.4.5-.9.9-1.5,1.2-.6.3-1.5.6-2.5.8s-2.3.3-3.7.3h-1Z"/>
        <path class="st1" d="M62.1,0c1.5,0,2.9,0,4.1.3,1.2.2,2.2.5,3,.8s1.5.7,2.1,1.2c.6.4,1,.9,1.3,1.5.3.5.5,1.1.7,1.6s.2,1.1.2,1.7v.6c0,.7,0,1.4-.3,2-.2.6-.5,1.3-1,1.9s-1.2,1.2-2,1.7c-.8.5-1.9.9-3.3,1.1-1.4.3-3,.5-4.8.5h-10.7V0h10.7ZM56.4,11.2h5.2c4.3,0,6.5-1.3,6.5-3.8h0c0-2.6-2.2-3.9-6.5-3.9h-5.2v7.7h0Z"/>
        <path class="st1" d="M96,14.8h-4.9l-1.4-2.7h-10.5l-1.4,2.7h-4.9L80.7.2h7.5s7.8,14.6,7.8,14.6ZM88,8.8l-2.8-5.4h-1.6l-2.8,5.4h7.1Z"/>
        <path class="st1" d="M101.7,9L93.2,0h6.2l4.9,5.4L109.3,0h5.6l-8.3,8.9v5.6h-5v-5.6Z"/>
      </g>
      <rect class="st0" x=".3" y="15.4" width="128.3" height="1.6"/>
    </g>
  </g>
</svg>